# 3ds Max Wavefront OBJ Exporter v0.97b - (c)2007 guruware
# File Created: 10.05.2014 15:16:00

mtllib wall.mtl

#
# object wall
#

v  1.0347 -1.9703 0.0932
v  1.3103 -1.9703 0.0932
v  1.3103 1.9703 0.0932
v  1.0347 1.9703 0.0932
v  1.3103 1.9703 -0.0932
v  1.0347 1.9703 -0.0932
v  1.3103 -1.9703 -0.0932
v  1.0347 -1.9703 -0.0932
v  4.0357 -1.9703 0.0932
v  4.3113 -1.9703 0.0932
v  4.3113 1.9703 0.0932
v  4.0357 1.9703 0.0932
v  4.3113 1.9703 -0.0932
v  4.0357 1.9703 -0.0932
v  4.3113 -1.9703 -0.0932
v  4.0357 -1.9703 -0.0932
v  2.5291 -1.9703 0.0932
v  2.8047 -1.9703 0.0932
v  2.8047 1.9703 0.0932
v  2.5291 1.9703 0.0932
v  2.8047 1.9703 -0.0932
v  2.5291 1.9703 -0.0932
v  2.8047 -1.9703 -0.0932
v  2.5291 -1.9703 -0.0932
v  5.5380 -1.9703 0.0932
v  5.8136 -1.9703 0.0932
v  5.8136 1.9703 0.0932
v  5.5380 1.9703 0.0932
v  5.8136 1.9703 -0.0932
v  5.5380 1.9703 -0.0932
v  5.8136 -1.9703 -0.0932
v  5.5380 -1.9703 -0.0932
v  -0.3173 -1.9703 0.0932
v  -0.0417 -1.9703 0.0932
v  -0.0417 1.9703 0.0932
v  -0.3173 1.9703 0.0932
v  -0.0417 1.9703 -0.0932
v  -0.3173 1.9703 -0.0932
v  -0.0417 -1.9703 -0.0932
v  -0.3173 -1.9703 -0.0932
v  -1.8198 -1.9703 0.0932
v  -1.5442 -1.9703 0.0932
v  -1.5442 1.9703 0.0932
v  -1.8198 1.9703 0.0932
v  -1.5442 1.9703 -0.0932
v  -1.8198 1.9703 -0.0932
v  -1.5442 -1.9703 -0.0932
v  -1.8198 -1.9703 -0.0932
v  -3.3193 -1.9703 0.0932
v  -3.0437 -1.9703 0.0932
v  -3.0437 1.9703 0.0932
v  -3.3193 1.9703 0.0932
v  -3.0437 1.9703 -0.0932
v  -3.3193 1.9703 -0.0932
v  -3.0437 -1.9703 -0.0932
v  -3.3193 -1.9703 -0.0932
v  -4.8049 -1.9703 0.0932
v  -4.5293 -1.9703 0.0932
v  -4.5293 1.9703 0.0932
v  -4.8049 1.9703 0.0932
v  -4.5293 1.9703 -0.0932
v  -4.8049 1.9703 -0.0932
v  -4.5293 -1.9703 -0.0932
v  -4.8049 -1.9703 -0.0932
v  5.6226 0.8679 0.0202
v  5.6226 1.3841 0.0894
v  -4.5981 1.3841 0.0894
v  -4.5981 0.8679 0.0202
v  -4.5981 0.8662 0.0202
v  5.6226 0.8662 0.0202
v  -4.5981 1.8075 0.0894
v  5.6226 1.8075 0.0894
v  5.6226 1.8075 -0.0202
v  -4.5981 1.8075 -0.0202
v  -4.5981 -1.6793 -0.0202
v  5.6226 -1.6793 -0.0202
v  5.6226 -1.6793 0.0894
v  -4.5981 -1.6793 0.0894
v  5.6226 0.8679 -0.0202
v  5.6226 1.3841 -0.0202
v  -4.5981 0.8679 -0.0202
v  -4.5981 1.3841 -0.0202
v  -4.5981 0.8662 -0.0202
v  -4.5981 0.4733 -0.0202
v  -4.5981 0.0089 -0.0202
v  -4.5981 -0.5447 -0.0202
v  -4.5981 -0.9734 -0.0202
v  -4.5981 -1.4020 -0.0202
v  5.6226 0.8662 -0.0202
v  5.6226 0.4733 -0.0202
v  5.6226 0.0089 -0.0202
v  5.6226 -0.5447 -0.0202
v  5.6226 -0.9734 -0.0202
v  5.6226 -1.4020 -0.0202
v  5.6226 0.4733 0.0202
v  5.6226 0.0089 0.0202
v  5.6226 -0.5447 0.0202
v  -4.5981 0.4733 0.0202
v  -4.5981 0.0089 0.0202
v  -4.5981 -0.5447 0.0202
v  -4.5981 -0.9734 0.0202
v  5.6226 -0.9734 0.0202
v  -4.5981 -1.4020 0.0894
v  5.6226 -1.4020 0.0894
# 104 vertices

vn 0.0000 -0.0000 1.0000
vn 0.0000 1.0000 0.0000
vn 0.0000 0.0000 -1.0000
vn 0.0000 -1.0000 -0.0000
vn 1.0000 0.0000 -0.0000
vn -1.0000 0.0000 -0.0000
vn 0.0000 -0.1325 0.9912
vn 0.0000 -0.0733 0.9973
vn 0.0000 -0.0294 0.9996
vn 0.0000 -1.0000 0.0000
vn -1.0000 -0.0000 0.0000
vn -0.0000 0.0000 -1.0000
vn 0.0000 0.0305 0.9995
vn -1.0000 0.0000 0.0000
vn 1.0000 -0.0000 -0.0000
vn 0.0000 0.0976 0.9952
# 16 vertex normals

vt 0.7282 0.0020 0.0000
vt 0.7476 0.0020 0.0000
vt 0.7476 0.2782 0.0000
vt 0.7282 0.2782 0.0000
vt 0.2028 0.7411 0.0000
vt 0.2028 0.7218 0.0000
vt 0.2159 0.7218 0.0000
vt 0.2159 0.7411 0.0000
vt 0.5301 0.0020 0.0000
vt 0.5495 0.0020 0.0000
vt 0.5495 0.2782 0.0000
vt 0.5301 0.2782 0.0000
vt 0.2942 0.7411 0.0000
vt 0.2942 0.7218 0.0000
vt 0.3072 0.7218 0.0000
vt 0.3072 0.7411 0.0000
vt 0.7530 0.0020 0.0000
vt 0.7661 0.0020 0.0000
vt 0.7661 0.2782 0.0000
vt 0.7530 0.2782 0.0000
vt 0.7728 0.0020 0.0000
vt 0.7859 0.0020 0.0000
vt 0.7859 0.2782 0.0000
vt 0.7728 0.2782 0.0000
vt 0.7926 0.0020 0.0000
vt 0.8119 0.0020 0.0000
vt 0.8119 0.2782 0.0000
vt 0.7926 0.2782 0.0000
vt 0.1846 0.7411 0.0000
vt 0.1846 0.7218 0.0000
vt 0.1977 0.7218 0.0000
vt 0.1977 0.7411 0.0000
vt 0.5549 0.0020 0.0000
vt 0.5742 0.0020 0.0000
vt 0.5742 0.2782 0.0000
vt 0.5549 0.2782 0.0000
vt 0.2759 0.7411 0.0000
vt 0.2759 0.7218 0.0000
vt 0.2890 0.7218 0.0000
vt 0.2890 0.7411 0.0000
vt 0.8174 0.0020 0.0000
vt 0.8305 0.0020 0.0000
vt 0.8305 0.2782 0.0000
vt 0.8174 0.2782 0.0000
vt 0.8323 0.2816 0.0000
vt 0.8454 0.2816 0.0000
vt 0.8454 0.5578 0.0000
vt 0.8323 0.5578 0.0000
vt 0.8078 0.2816 0.0000
vt 0.8271 0.2816 0.0000
vt 0.8271 0.5578 0.0000
vt 0.8078 0.5578 0.0000
vt 0.4220 0.7411 0.0000
vt 0.4220 0.7218 0.0000
vt 0.4351 0.7218 0.0000
vt 0.4351 0.7411 0.0000
vt 0.5797 0.0020 0.0000
vt 0.5990 0.0020 0.0000
vt 0.5990 0.2782 0.0000
vt 0.5797 0.2782 0.0000
vt 0.4038 0.7411 0.0000
vt 0.4038 0.7218 0.0000
vt 0.4168 0.7218 0.0000
vt 0.4168 0.7411 0.0000
vt 0.7895 0.2816 0.0000
vt 0.8026 0.2816 0.0000
vt 0.8026 0.5578 0.0000
vt 0.7895 0.5578 0.0000
vt 0.7713 0.2816 0.0000
vt 0.7843 0.2816 0.0000
vt 0.7843 0.5578 0.0000
vt 0.7713 0.5578 0.0000
vt 0.7467 0.2816 0.0000
vt 0.7661 0.2816 0.0000
vt 0.7661 0.5578 0.0000
vt 0.7467 0.5578 0.0000
vt 0.3855 0.7411 0.0000
vt 0.3855 0.7218 0.0000
vt 0.3986 0.7218 0.0000
vt 0.3986 0.7411 0.0000
vt 0.6044 0.0020 0.0000
vt 0.6237 0.0020 0.0000
vt 0.6237 0.2782 0.0000
vt 0.6044 0.2782 0.0000
vt 0.3672 0.7411 0.0000
vt 0.3672 0.7218 0.0000
vt 0.3803 0.7218 0.0000
vt 0.3803 0.7411 0.0000
vt 0.7285 0.2816 0.0000
vt 0.7416 0.2816 0.0000
vt 0.7416 0.5578 0.0000
vt 0.7285 0.5578 0.0000
vt 0.7102 0.2816 0.0000
vt 0.7233 0.2816 0.0000
vt 0.7233 0.5578 0.0000
vt 0.7102 0.5578 0.0000
vt 0.6857 0.2816 0.0000
vt 0.7050 0.2816 0.0000
vt 0.7050 0.5578 0.0000
vt 0.6857 0.5578 0.0000
vt 0.3490 0.7411 0.0000
vt 0.3490 0.7218 0.0000
vt 0.3620 0.7218 0.0000
vt 0.3620 0.7411 0.0000
vt 0.6292 0.0020 0.0000
vt 0.6485 0.0020 0.0000
vt 0.6485 0.2782 0.0000
vt 0.6292 0.2782 0.0000
vt 0.2576 0.7411 0.0000
vt 0.2576 0.7218 0.0000
vt 0.2707 0.7218 0.0000
vt 0.2707 0.7411 0.0000
vt 0.6674 0.2816 0.0000
vt 0.6805 0.2816 0.0000
vt 0.6805 0.5578 0.0000
vt 0.6674 0.5578 0.0000
vt 0.6492 0.2816 0.0000
vt 0.6622 0.2816 0.0000
vt 0.6622 0.5578 0.0000
vt 0.6492 0.5578 0.0000
vt 0.6247 0.2816 0.0000
vt 0.6440 0.2816 0.0000
vt 0.6440 0.5578 0.0000
vt 0.6247 0.5578 0.0000
vt 0.1663 0.7411 0.0000
vt 0.1663 0.7218 0.0000
vt 0.1794 0.7218 0.0000
vt 0.1794 0.7411 0.0000
vt 0.6540 0.0020 0.0000
vt 0.6733 0.0020 0.0000
vt 0.6733 0.2782 0.0000
vt 0.6540 0.2782 0.0000
vt 0.2394 0.7411 0.0000
vt 0.2394 0.7218 0.0000
vt 0.2524 0.7218 0.0000
vt 0.2524 0.7411 0.0000
vt 0.6064 0.2816 0.0000
vt 0.6195 0.2816 0.0000
vt 0.6195 0.5578 0.0000
vt 0.6064 0.5578 0.0000
vt 0.5881 0.2816 0.0000
vt 0.6012 0.2816 0.0000
vt 0.6012 0.5578 0.0000
vt 0.5881 0.5578 0.0000
vt 0.5636 0.2816 0.0000
vt 0.5829 0.2816 0.0000
vt 0.5829 0.5578 0.0000
vt 0.5636 0.5578 0.0000
vt 0.1481 0.7411 0.0000
vt 0.1481 0.7218 0.0000
vt 0.1611 0.7218 0.0000
vt 0.1611 0.7411 0.0000
vt 0.6787 0.0020 0.0000
vt 0.6980 0.0020 0.0000
vt 0.6980 0.2782 0.0000
vt 0.6787 0.2782 0.0000
vt 0.2211 0.7411 0.0000
vt 0.2211 0.7218 0.0000
vt 0.2342 0.7218 0.0000
vt 0.2342 0.7411 0.0000
vt 0.5454 0.2816 0.0000
vt 0.5584 0.2816 0.0000
vt 0.5584 0.5578 0.0000
vt 0.5454 0.5578 0.0000
vt 0.5271 0.7218 0.0000
vt 0.5402 0.7218 0.0000
vt 0.5402 0.9980 0.0000
vt 0.5271 0.9980 0.0000
vt 0.5026 0.7218 0.0000
vt 0.5219 0.7218 0.0000
vt 0.5219 0.9980 0.0000
vt 0.5026 0.9980 0.0000
vt 0.3307 0.7411 0.0000
vt 0.3307 0.7218 0.0000
vt 0.3438 0.7218 0.0000
vt 0.3438 0.7411 0.0000
vt 0.7035 0.0020 0.0000
vt 0.7228 0.0020 0.0000
vt 0.7228 0.2782 0.0000
vt 0.7035 0.2782 0.0000
vt 0.3124 0.7411 0.0000
vt 0.3124 0.7218 0.0000
vt 0.3255 0.7218 0.0000
vt 0.3255 0.7411 0.0000
vt 0.4843 0.7218 0.0000
vt 0.4974 0.7218 0.0000
vt 0.4974 0.9980 0.0000
vt 0.4843 0.9980 0.0000
vt 0.4660 0.7218 0.0000
vt 0.4791 0.7218 0.0000
vt 0.4791 0.9980 0.0000
vt 0.4660 0.9980 0.0000
vt 0.4313 0.0020 0.0000
vt 0.4675 0.0020 0.0000
vt 0.4675 0.7184 0.0000
vt 0.4313 0.7184 0.0000
vt 0.4312 0.7184 0.0000
vt 0.4312 0.0020 0.0000
vt 0.5169 0.7184 0.0000
vt 0.5169 0.0020 0.0000
vt 0.5246 0.0020 0.0000
vt 0.5246 0.7184 0.0000
vt 0.5037 0.7184 0.0000
vt 0.5037 0.0020 0.0000
vt 0.5114 0.0020 0.0000
vt 0.5114 0.7184 0.0000
vt 0.4580 0.9003 0.0000
vt 0.4608 0.9003 0.0000
vt 0.4608 0.9365 0.0000
vt 0.4532 0.9365 0.0000
vt 0.4403 0.9003 0.0000
vt 0.4431 0.9003 0.0000
vt 0.4480 0.9365 0.0000
vt 0.4403 0.9365 0.0000
vt 0.0314 0.7184 0.0000
vt 0.0017 0.7184 0.0000
vt 0.0017 0.0020 0.0000
vt 0.0675 0.7184 0.0000
vt 0.0677 0.7184 0.0000
vt 0.0952 0.7184 0.0000
vt 0.1278 0.7184 0.0000
vt 0.1666 0.7184 0.0000
vt 0.1966 0.7184 0.0000
vt 0.2267 0.7184 0.0000
vt 0.0314 0.0020 0.0000
vt 0.0675 0.0020 0.0000
vt 0.0677 0.0020 0.0000
vt 0.0952 0.0020 0.0000
vt 0.1278 0.0020 0.0000
vt 0.1666 0.0020 0.0000
vt 0.1966 0.0020 0.0000
vt 0.2267 0.0020 0.0000
vt 0.2461 0.0020 0.0000
vt 0.2461 0.7184 0.0000
vt 0.4580 0.9002 0.0000
vt 0.4608 0.9002 0.0000
vt 0.4403 0.9002 0.0000
vt 0.4431 0.9002 0.0000
vt 0.4972 0.0020 0.0000
vt 0.4972 0.7184 0.0000
vt 0.4608 0.9662 0.0000
vt 0.4532 0.9662 0.0000
vt 0.4480 0.9662 0.0000
vt 0.4403 0.9662 0.0000
vt 0.4037 0.0020 0.0000
vt 0.3711 0.0020 0.0000
vt 0.3323 0.0020 0.0000
vt 0.4037 0.7184 0.0000
vt 0.3711 0.7184 0.0000
vt 0.3323 0.7184 0.0000
vt 0.3023 0.7184 0.0000
vt 0.3023 0.0020 0.0000
vt 0.4580 0.8727 0.0000
vt 0.4608 0.8727 0.0000
vt 0.4403 0.8727 0.0000
vt 0.4431 0.8727 0.0000
vt 0.4580 0.8401 0.0000
vt 0.4608 0.8401 0.0000
vt 0.4403 0.8401 0.0000
vt 0.4431 0.8401 0.0000
vt 0.4580 0.8013 0.0000
vt 0.4608 0.8013 0.0000
vt 0.4403 0.8013 0.0000
vt 0.4431 0.8013 0.0000
vt 0.4580 0.7713 0.0000
vt 0.4608 0.7713 0.0000
vt 0.4403 0.7713 0.0000
vt 0.4431 0.7713 0.0000
vt 0.2722 0.7184 0.0000
vt 0.2722 0.0020 0.0000
vt 0.4532 0.7412 0.0000
vt 0.4608 0.7412 0.0000
vt 0.4403 0.7412 0.0000
vt 0.4480 0.7412 0.0000
vt 0.2528 0.7184 0.0000
vt 0.2528 0.0020 0.0000
vt 0.4532 0.7218 0.0000
vt 0.4608 0.7218 0.0000
vt 0.4403 0.7218 0.0000
vt 0.4480 0.7218 0.0000
# 280 texture coords

g wall
usemtl lambert1
s off
f 1/1/1 2/2/1 3/3/1 
f 3/3/1 4/4/1 1/1/1 
f 4/5/2 3/6/2 5/7/2 
f 5/7/2 6/8/2 4/5/2 
f 6/9/3 5/10/3 7/11/3 
f 7/11/3 8/12/3 6/9/3 
f 8/13/4 7/14/4 2/15/4 
f 2/15/4 1/16/4 8/13/4 
f 2/17/5 7/18/5 5/19/5 
f 5/19/5 3/20/5 2/17/5 
f 8/21/6 1/22/6 4/23/6 
f 4/23/6 6/24/6 8/21/6 
f 9/25/1 10/26/1 11/27/1 
f 11/27/1 12/28/1 9/25/1 
f 12/29/2 11/30/2 13/31/2 
f 13/31/2 14/32/2 12/29/2 
f 14/33/3 13/34/3 15/35/3 
f 15/35/3 16/36/3 14/33/3 
f 16/37/4 15/38/4 10/39/4 
f 10/39/4 9/40/4 16/37/4 
f 10/41/5 15/42/5 13/43/5 
f 13/43/5 11/44/5 10/41/5 
f 16/45/6 9/46/6 12/47/6 
f 12/47/6 14/48/6 16/45/6 
f 17/49/1 18/50/1 19/51/1 
f 19/51/1 20/52/1 17/49/1 
f 20/53/2 19/54/2 21/55/2 
f 21/55/2 22/56/2 20/53/2 
f 22/57/3 21/58/3 23/59/3 
f 23/59/3 24/60/3 22/57/3 
f 24/61/4 23/62/4 18/63/4 
f 18/63/4 17/64/4 24/61/4 
f 18/65/5 23/66/5 21/67/5 
f 21/67/5 19/68/5 18/65/5 
f 24/69/6 17/70/6 20/71/6 
f 20/71/6 22/72/6 24/69/6 
f 25/73/1 26/74/1 27/75/1 
f 27/75/1 28/76/1 25/73/1 
f 28/77/2 27/78/2 29/79/2 
f 29/79/2 30/80/2 28/77/2 
f 30/81/3 29/82/3 31/83/3 
f 31/83/3 32/84/3 30/81/3 
f 32/85/4 31/86/4 26/87/4 
f 26/87/4 25/88/4 32/85/4 
f 26/89/5 31/90/5 29/91/5 
f 29/91/5 27/92/5 26/89/5 
f 32/93/6 25/94/6 28/95/6 
f 28/95/6 30/96/6 32/93/6 
f 33/97/1 34/98/1 35/99/1 
f 35/99/1 36/100/1 33/97/1 
f 36/101/2 35/102/2 37/103/2 
f 37/103/2 38/104/2 36/101/2 
f 38/105/3 37/106/3 39/107/3 
f 39/107/3 40/108/3 38/105/3 
f 40/109/4 39/110/4 34/111/4 
f 34/111/4 33/112/4 40/109/4 
f 34/113/5 39/114/5 37/115/5 
f 37/115/5 35/116/5 34/113/5 
f 40/117/6 33/118/6 36/119/6 
f 36/119/6 38/120/6 40/117/6 
f 41/121/1 42/122/1 43/123/1 
f 43/123/1 44/124/1 41/121/1 
f 44/125/2 43/126/2 45/127/2 
f 45/127/2 46/128/2 44/125/2 
f 46/129/3 45/130/3 47/131/3 
f 47/131/3 48/132/3 46/129/3 
f 48/133/4 47/134/4 42/135/4 
f 42/135/4 41/136/4 48/133/4 
f 42/137/5 47/138/5 45/139/5 
f 45/139/5 43/140/5 42/137/5 
f 48/141/6 41/142/6 44/143/6 
f 44/143/6 46/144/6 48/141/6 
f 49/145/1 50/146/1 51/147/1 
f 51/147/1 52/148/1 49/145/1 
f 52/149/2 51/150/2 53/151/2 
f 53/151/2 54/152/2 52/149/2 
f 54/153/3 53/154/3 55/155/3 
f 55/155/3 56/156/3 54/153/3 
f 56/157/4 55/158/4 50/159/4 
f 50/159/4 49/160/4 56/157/4 
f 50/161/5 55/162/5 53/163/5 
f 53/163/5 51/164/5 50/161/5 
f 56/165/6 49/166/6 52/167/6 
f 52/167/6 54/168/6 56/165/6 
f 57/169/1 58/170/1 59/171/1 
f 59/171/1 60/172/1 57/169/1 
f 60/173/2 59/174/2 61/175/2 
f 61/175/2 62/176/2 60/173/2 
f 62/177/3 61/178/3 63/179/3 
f 63/179/3 64/180/3 62/177/3 
f 64/181/4 63/182/4 58/183/4 
f 58/183/4 57/184/4 64/181/4 
f 58/185/5 63/186/5 61/187/5 
f 61/187/5 59/188/5 58/185/5 
f 64/189/6 57/190/6 60/191/6 
f 60/191/6 62/192/6 64/189/6 
f 65/193/7 66/194/8 67/195/8 
f 65/193/7 67/195/8 68/196/7 
f 65/193/7 68/196/7 69/197/9 
f 65/193/7 69/197/9 70/198/9 
f 71/199/2 72/200/2 73/201/2 
f 73/201/2 74/202/2 71/199/2 
f 75/203/10 76/204/10 77/205/10 
f 77/205/10 78/206/10 75/203/10 
f 65/207/5 79/208/5 80/209/5 
f 80/209/5 66/210/5 65/207/5 
f 81/211/11 68/212/11 67/213/11 
f 67/213/11 82/214/11 81/211/11 
f 82/215/12 74/216/12 73/217/12 
f 81/218/12 82/215/12 73/217/12 
f 83/219/12 81/218/12 73/217/12 
f 84/220/12 83/219/12 73/217/12 
f 85/221/12 84/220/12 73/217/12 
f 86/222/12 85/221/12 73/217/12 
f 87/223/12 86/222/12 73/217/12 
f 88/224/12 87/223/12 73/217/12 
f 88/224/12 73/217/12 80/225/12 
f 88/224/12 80/225/12 79/226/12 
f 88/224/12 79/226/12 89/227/12 
f 88/224/12 89/227/12 90/228/12 
f 88/224/12 90/228/12 91/229/12 
f 88/224/12 91/229/12 92/230/12 
f 88/224/12 92/230/12 93/231/12 
f 88/224/12 93/231/12 94/232/12 
f 88/224/12 94/232/12 76/233/12 
f 88/224/12 76/233/12 75/234/12 
f 79/208/5 65/207/5 70/235/5 
f 70/235/5 89/236/5 79/208/5 
f 68/212/11 81/211/11 83/237/11 
f 83/237/11 69/238/11 68/212/11 
f 67/195/8 66/194/8 72/239/1 
f 72/239/1 71/240/1 67/195/8 
f 66/210/5 80/209/5 73/241/5 
f 73/241/5 72/242/5 66/210/5 
f 82/214/11 67/213/11 71/243/11 
f 71/243/11 74/244/11 82/214/11 
f 95/245/1 70/198/9 69/197/9 
f 96/246/1 95/245/1 69/197/9 
f 97/247/1 96/246/1 69/197/9 
f 97/247/1 69/197/9 98/248/1 
f 97/247/1 98/248/1 99/249/1 
f 97/247/1 99/249/1 100/250/1 
f 97/247/1 100/250/1 101/251/13 
f 97/247/1 101/251/13 102/252/13 
f 89/236/5 70/235/5 95/253/5 
f 95/253/5 90/254/5 89/236/5 
f 69/238/11 83/237/11 84/255/14 
f 84/255/14 98/256/14 69/238/11 
f 90/254/5 95/253/5 96/257/15 
f 96/257/15 91/258/15 90/254/5 
f 98/256/14 84/255/14 85/259/11 
f 85/259/11 99/260/11 98/256/14 
f 91/258/15 96/257/15 97/261/15 
f 97/261/15 92/262/15 91/258/15 
f 99/260/11 85/259/11 86/263/14 
f 86/263/14 100/264/14 99/260/11 
f 92/262/15 97/261/15 102/265/15 
f 102/265/15 93/266/15 92/262/15 
f 100/264/14 86/263/14 87/267/14 
f 87/267/14 101/268/14 100/264/14 
f 102/252/13 101/251/13 103/269/16 
f 103/269/16 104/270/16 102/252/13 
f 93/266/15 102/265/15 104/271/15 
f 104/271/15 94/272/15 93/266/15 
f 101/268/14 87/267/14 88/273/11 
f 88/273/11 103/274/11 101/268/14 
f 104/270/16 103/269/16 78/275/1 
f 78/275/1 77/276/1 104/270/16 
f 94/272/15 104/271/15 77/277/5 
f 77/277/5 76/278/5 94/272/15 
f 103/274/11 88/273/11 75/279/11 
f 75/279/11 78/280/11 103/274/11 
# 172 faces

